<svg xmlns="http://www.w3.org/2000/svg" width="690" height="153" viewBox="0 0 690 153" role="img" aria-labelledby="title desc">
  <title id="title">Pagos seguros por Wompi</title>
  <desc id="desc">Banner de pagos seguros por Wompi con Visa, Mastercard, American Express, PSE, Nequi y Bancolombia.</desc>
  <rect width="690" height="153" fill="#000"/>

  <g transform="translate(0 0)">
    <path d="M15 10 31 17v14c0 11-7 19-16 23C6 50 0 42 0 31V17z" fill="#9fb1c7"/>
    <path d="m8 29 5 5 10-12" fill="none" stroke="#0b1220" stroke-width="2.2" stroke-linecap="round" stroke-linejoin="round"/>
    <text x="43" y="41" fill="#9fb1c7" font-family="Arial, Helvetica, sans-serif" font-size="34" font-weight="700" letter-spacing="1.2">PAGOS SEGUROS POR</text>
    <text x="423" y="50" fill="#2454b8" font-family="Arial Black, Arial, Helvetica, sans-serif" font-size="62" font-weight="900" letter-spacing="-4">wompi</text>
    <circle cx="679" cy="5" r="6" fill="#f7cf3d"/>
  </g>

  <g transform="translate(39 91)">
    <rect width="90" height="60" rx="3" fill="#fff" stroke="#c9ced6" stroke-width="1.5"/>
    <text x="13" y="40" fill="#1a3e91" font-family="Arial Black, Arial, Helvetica, sans-serif" font-size="28" font-style="italic" font-weight="900">VISA</text>
  </g>

  <g transform="translate(146 91)">
    <rect width="90" height="60" rx="3" fill="#fff" stroke="#c9ced6" stroke-width="1.5"/>
    <circle cx="38" cy="30" r="17" fill="#eb001b"/>
    <circle cx="53" cy="30" r="17" fill="#f79e1b"/>
    <path d="M45.5 16.5a17 17 0 0 1 0 27 17 17 0 0 1 0-27z" fill="#ff5f00"/>
    <text x="16" y="51" fill="#333" font-family="Arial, Helvetica, sans-serif" font-size="9" font-weight="700">mastercard</text>
  </g>

  <g transform="translate(254 91)">
    <rect width="90" height="60" rx="3" fill="#fff" stroke="#c9ced6" stroke-width="1.5"/>
    <rect x="22" y="8" width="47" height="44" fill="#1976c9"/>
    <text x="27" y="28" fill="#fff" font-family="Arial, Helvetica, sans-serif" font-size="8" font-weight="900">AMERICAN</text>
    <text x="30" y="39" fill="#fff" font-family="Arial, Helvetica, sans-serif" font-size="9" font-weight="900">EXPRESS</text>
  </g>

  <g transform="translate(362 91)">
    <rect width="90" height="60" rx="3" fill="#fff" stroke="#c9ced6" stroke-width="1.5"/>
    <g fill="#ffcc29">
      <circle cx="20" cy="24" r="1.8"/>
      <circle cx="26" cy="19" r="1.8"/>
      <circle cx="28" cy="27" r="1.8"/>
      <circle cx="34" cy="22" r="1.8"/>
      <circle cx="36" cy="31" r="1.8"/>
      <circle cx="25" cy="35" r="1.8"/>
      <circle cx="18" cy="33" r="1.8"/>
      <circle cx="31" cy="38" r="1.8"/>
    </g>
    <text x="39" y="38" fill="#2270b8" font-family="Arial, Helvetica, sans-serif" font-size="24" font-style="italic">pse</text>
  </g>

  <g transform="translate(471 91)">
    <rect width="90" height="60" rx="3" fill="#fff" stroke="#c9ced6" stroke-width="1.5"/>
    <path d="M18 25 31 17l16 10-9 18-19 2L7 35z" fill="#0b1054"/>
    <path d="M10 30 28 18l18 12-15 17z" fill="#f5006d" opacity=".9"/>
    <text x="39" y="38" fill="#1e174d" font-family="Arial, Helvetica, sans-serif" font-size="17" font-weight="700" letter-spacing="3">NEQUI</text>
  </g>

  <g transform="translate(579 91)">
    <rect width="90" height="60" rx="3" fill="#fff" stroke="#c9ced6" stroke-width="1.5"/>
    <path d="M24 18h42v10H24z" fill="#27348b" transform="rotate(-8 24 18)"/>
    <path d="M25 31h42v10H25z" fill="#ffcc29" transform="rotate(-8 25 31)"/>
    <path d="M26 44h42v10H26z" fill="#ed1c24" transform="rotate(-8 26 44)"/>
  </g>
</svg>
